<svg id="Group_380" data-name="Group 380" xmlns="http://www.w3.org/2000/svg"
    xmlns:xlink="http://www.w3.org/1999/xlink" width="266.5" height="244.211"
    viewBox="0 0 266.5 244.211">
  <defs>
    <clipPath id="clip-path">
      <rect id="Rectangle_104" data-name="Rectangle 104" width="266.5" height="244.211"
          fill="none" />
    </clipPath>
  </defs>
  <g id="Group_379" data-name="Group 379" clip-path="url(#clip-path)">
    <path id="Path_293" data-name="Path 293"
        d="M256.829,1.247Q238.261,9.367,219.694,17.5,113.8,63.888,7.9,110.323a14.725,14.725,0,0,0-4.784,2.991c-5.818,6.094-3.155,15.714,5.129,18.61,6.784,2.37,13.645,4.525,20.472,6.775,16.774,5.534,33.54,11.094,50.34,16.55,1.7.552,2.362,1.259,2.224,3.069-.172,2.241-.043,4.508-.043,6.758q0,28.109.009,56.219c.009,7.129,3.526,12.137,9.749,14.059,6.284,1.939,12.257-.328,16.429-6.344q14.3-20.623,28.558-41.289c.526-.759,1.077-1.491,1.681-2.336.862.715,1.534,1.258,2.181,1.819q31.264,26.907,62.537,53.8c7.3,6.275,16.972,2.948,18.86-6.474q8.262-41.285,16.429-82.587,12.607-63.6,25.213-127.2c1.112-5.577,2.4-11.111,3.612-16.671V4.428C263.905-.365,261.983-1,256.829,1.247M133.03,172.593c-11.749,16.214-22.843,32.9-34.238,49.366a14.049,14.049,0,0,1-1.741,2.258,2.726,2.726,0,0,1-4.534-1.284,12.758,12.758,0,0,1-.224-3.095q-.013-32.79-.009-65.58c0-5.344-.707-6.327-5.844-8.042L14.274,122.063c-.965-.319-1.922-.672-3.379-1.2Q122.6,72.029,233.322,23.633c.1.155.215.31.319.465q-12.749,10.486-25.506,20.972-41.194,33.876-82.363,67.787a10.2,10.2,0,0,0-2.741,3.362,5.349,5.349,0,0,0,1.922,6.232,5.623,5.623,0,0,0,6.749-.56q12.788-10.46,25.541-20.963L224.8,45.45a2.057,2.057,0,0,1,1.4-.543c-.483.69-.94,1.4-1.44,2.069-30.592,41.858-61.3,83.63-91.724,125.617m77.32,60.529c-22.265-19.11-44.177-37.91-66.33-56.926q52.728-71.967,105.395-143.839c.155.069.319.138.483.207C236.744,99.281,223.582,166,210.35,233.121"
        transform="translate(0 0)" fill="#004a86" />
    <path id="Path_294" data-name="Path 294"
        d="M133.331,153.62a109.387,109.387,0,0,1-10.059,8.129,5.4,5.4,0,0,1-7.594-1.44c-1.655-2.431-1.3-5.172,1.215-7.387,2.664-2.345,5.4-4.6,8.258-6.706,1.121-.827,2.629-1.129,4.629-1.948,1.44,1.164,3.327,2.129,4.387,3.672a4.248,4.248,0,0,1-.836,5.68"
        transform="translate(-15.826 -19.911)" fill="#004a86" />
  </g>
</svg>
