<svg xmlns="http://www.w3.org/2000/svg" width="56.358" height="90.85" viewBox="0 0 56.358 90.85">
  <g id="Group_13" data-name="Group 13" transform="translate(-37 -372)">
    <g id="Group_10" data-name="Group 10" transform="translate(37 372)">
      <path id="Path_8" data-name="Path 8"
          d="M55.035,7.81A92.645,92.645,0,0,0,19.269,0C10.863-.141,3.855,4.624,3.292,12.509,2.275,26.632,5.65,39.977,11.434,52.76c1.6,3.549,4.633,4.435,8.141,3.591,3.458-.827,4.567-3.483,4.377-6.776-.24-4.1-.728-8.174-.786-12.253-.141-10.375,6.8-17.366,17.184-17.3,3.946.033,7.876.587,11.823.836,3.781.223,6.362-1.564,7.115-5.229.736-3.591-.761-6.271-4.253-7.818"
          transform="translate(-3.112 0.004)" fill="#00c5fb" />
    </g>
    <g id="Group_11" data-name="Group 11" transform="translate(37 405.718)">
      <path id="Path_9" data-name="Path 9"
          d="M40.217,41.007c-3.74.918-5.047,3.74-4.724,7.446.331,4.079.869,8.166.869,12.245A16.282,16.282,0,0,1,20.468,77.377q-.347.012-.695,0c-3.649.008-7.314-.4-10.962-.728-4.493-.4-7.463,1.142-8.489,4.567-1.1,3.624.587,6.594,4.9,8.6,10.392,4.84,21.445,6.834,37.8,8.017,7.57.728,13.229-7.479,13.3-14.669a86.275,86.275,0,0,0-8.191-38.174c-1.646-3.475-4.344-4.865-7.909-3.988"
          transform="translate(0.005 -40.751)" fill="#00c5fb" />
    </g>
  </g>
</svg>
