<svg xmlns="http://www.w3.org/2000/svg" width="305.353" height="315.282"
    viewBox="0 0 305.353 315.282">
  <g id="Group_27" data-name="Group 27" transform="translate(-65.988 -107)">
    <path id="Path_22" data-name="Path 22"
        d="M532.685,151.152h-1.727V103.844a27.382,27.382,0,0,0-27.382-27.382H403.344a27.382,27.382,0,0,0-27.382,27.382V363.386a27.382,27.382,0,0,0,27.382,27.382H503.577a27.382,27.382,0,0,0,27.382-27.382V184.827h1.727Z"
        transform="translate(-256.34 30.538)" fill="#e6e6e6" />
    <path id="Path_23" data-name="Path 23"
        d="M515.029,93.335H501.946a9.715,9.715,0,0,1-9,13.384H435.529a9.715,9.715,0,0,1-8.995-13.384h-12.22a20.449,20.449,0,0,0-20.449,20.449V372.949A20.449,20.449,0,0,0,414.314,393.4H515.029a20.449,20.449,0,0,0,20.449-20.449h0V113.783a20.448,20.448,0,0,0-20.448-20.448Z"
        transform="translate(-266.688 20.786)" fill="#fff" />
    <path id="Path_8" data-name="Path 8"
        d="M547.552,326.054H487.414a2.162,2.162,0,0,1-2.159-2.159V263.756a2.162,2.162,0,0,1,2.159-2.159h60.138a2.162,2.162,0,0,1,2.159,2.159v60.138A2.162,2.162,0,0,1,547.552,326.054Zm-60.138-63.592a1.3,1.3,0,0,0-1.3,1.3v60.138a1.3,1.3,0,0,0,1.3,1.3h60.138a1.3,1.3,0,0,0,1.3-1.3V263.757a1.3,1.3,0,0,0-1.3-1.3Z"
        transform="translate(-319.255 -76.466)" fill="#ccc" />
    <rect id="Rectangle_1" data-name="Rectangle 1" width="92.233" height="0.864"
        transform="translate(149.238 295.686)" fill="#ccc" />
    <rect id="Rectangle_2" data-name="Rectangle 2" width="92.233" height="0.864"
        transform="translate(149.238 324.812)" fill="#ccc" />
    <path id="Path_113" data-name="Path 113"
        d="M618.169,651.978H589.021a1.9,1.9,0,0,1-1.9-1.9V639.863a1.9,1.9,0,0,1,1.9-1.9h29.148a1.9,1.9,0,0,1,1.9,1.9v10.216a1.9,1.9,0,0,1-1.9,1.9Z"
        transform="translate(-378.386 -293.999)" fill="#004a86" />
    <path id="Path_88" data-name="Path 88"
        d="M553.053,822.13h-303c-.649,0-1.174-.23-1.174-.514s.525-.515,1.174-.515h303c.648,0,1.174.231,1.174.515S553.7,822.13,553.053,822.13Z"
        transform="translate(-182.886 -399.849)" fill="#3f3d56" />
    <g id="Group_10" data-name="Group 10" transform="translate(185.208 197)">
      <path id="Path_8-2" data-name="Path 8"
          d="M27.429,3.655A43.388,43.388,0,0,0,10.679,0C6.742-.068,3.46,2.164,3.2,5.856a38.588,38.588,0,0,0,3.813,18.85,3,3,0,0,0,3.813,1.682c1.62-.387,2.139-1.631,2.05-3.173-.112-1.918-.341-3.828-.368-5.738-.066-4.859,3.185-8.133,8.048-8.1,1.848.016,3.689.275,5.537.391a2.9,2.9,0,0,0,3.332-2.449,3.048,3.048,0,0,0-1.992-3.662"
          transform="translate(-3.112 0.004)" fill="#00c5fb" />
    </g>
    <g id="Group_11" data-name="Group 11" transform="translate(184 212.791)">
      <path id="Path_9" data-name="Path 9"
          d="M18.832,40.871c-1.751.43-2.364,1.751-2.212,3.487.155,1.91.407,3.824.407,5.735A7.625,7.625,0,0,1,9.583,57.9q-.163.006-.325,0c-1.709,0-3.425-.186-5.134-.341C2.019,57.377.628,58.1.148,59.7c-.515,1.7.275,3.088,2.294,4.03,4.867,2.267,10.043,3.2,17.7,3.755,3.545.341,6.2-3.5,6.227-6.87a40.4,40.4,0,0,0-3.836-17.878,3,3,0,0,0-3.7-1.868"
          transform="translate(0.005 -40.751)" fill="#004a86" />
    </g>
  </g>
</svg>
