<svg xmlns="http://www.w3.org/2000/svg" width="412.239" height="221.592"
    viewBox="0 0 412.239 221.592">
  <g id="Group_30" data-name="Group 30" transform="translate(-8 -198.021)">
    <path id="Path_31" data-name="Path 31"
        d="M611.967,544.635a4.79,4.79,0,0,1,.482.581l22.573-.552,2.633-4.812,7.782,3.025-3.834,8.972a3.642,3.642,0,0,1-3.786,2.185l-25.5-3.081a4.779,4.779,0,1,1-.346-6.317Z"
        transform="translate(-387.574 -269.893)" fill="#ffb7b7" />
    <path id="Path_32" data-name="Path 32" d="M515.885,684.078h-7.422l-3.531-28.629h10.954Z"
        transform="translate(-217.907 -272.249)" fill="#ffb7b7" />
    <path id="Path_33" data-name="Path 33"
        d="M735.8,801.817H711.87v-.3a9.315,9.315,0,0,1,9.314-9.315H735.8Z"
        transform="translate(-435.932 -382.794)" fill="#2f2e41" />
    <path id="Path_34" data-name="Path 34" d="M397.266,682.159l-6.825-2.916,8-27.714,10.073,4.3Z"
        transform="translate(-166.684 -270.495)" fill="#ffb7b7" />
    <path id="Path_35" data-name="Path 35"
        d="M610.01,797.186,588,787.784l.119-.278a9.316,9.316,0,0,1,12.225-4.907h0l13.442,5.742Z"
        transform="translate(-380.513 -378.163)" fill="#2f2e41" />
    <path id="Path_36" data-name="Path 36"
        d="M459.033,469.533l-.537,8.7,15.689,1.679,16.416,1.757-4.832-13.206Z"
        transform="translate(-197.132 -188.589)" fill="#ffb7b7" />
    <path id="Path_37" data-name="Path 37"
        d="M679.668,535.024l-6.095-42.488,10.564-3.462,3.1-4.255,15.1.893,2.217,4.965,8.051,3.8-1.237,22.978.9,19.222Z"
        transform="translate(-418.797 -245.272)" fill="#2f2e41" />
    <path id="Path_38" data-name="Path 38"
        d="M668.962,529.959l-10.745-4.3.046-.191c.046-.193,4.619-19.3,5.227-22.375a5.354,5.354,0,0,1,3.042-4.12l.072-.026,4.252,1.294,1.867,14.674Z"
        transform="translate(-411.927 -251.593)" fill="#2f2e41" />
    <path id="Path_39" data-name="Path 39"
        d="M628.216,689.688l-14.3-2.934,22.861-63.081,7.824-21.516s4.963-17.251,7.2-23.928l1.353-8.958,32.03,3.545s8.946,13.138,6.228,34.552l1.229,80.486-14.3.734-11.98-81.174-21.027,44.5S638.7,670.9,633.961,675.017Z"
        transform="translate(-392.105 -283.055)" fill="#2f2e41" />
    <path id="Path_40" data-name="Path 40"
        d="M715.892,560.254a4.786,4.786,0,0,1,.754.042l14.942-16.928-1.738-5.2,7.509-3.65,3.972,8.911a3.642,3.642,0,0,1-.972,4.262l-19.6,16.607a4.779,4.779,0,1,1-4.868-4.041Z"
        transform="translate(-435.658 -267.506)" fill="#ffb7b7" />
    <path id="Path_41" data-name="Path 41"
        d="M740.843,530.6l-6.233-14.662,2.431-10.213,2.619-3.309a1.509,1.509,0,0,1,1.212.011c.966.389,1.789,1.581,2.445,3.542l5.842,16.639Z"
        transform="translate(-446.106 -253.09)" fill="#2f2e41" />
    <path id="Path_42" data-name="Path 42"
        d="M687.367,454.045V442.992a14.812,14.812,0,0,1,29.624,0v11.054a1.992,1.992,0,0,1-1.99,1.99H689.357A1.992,1.992,0,0,1,687.367,454.045Z"
        transform="translate(-424.969 -219.931)" fill="#2f2e41" />
    <circle id="Ellipse_1" data-name="Ellipse 1" cx="10.86" cy="10.86" r="10.86"
        transform="translate(263.307 214.128)" fill="#ffb7b7" />
    <path id="Path_43" data-name="Path 43"
        d="M681.026,447.1a11.73,11.73,0,0,1,11.717-11.717h2.211A11.73,11.73,0,0,1,706.671,447.1v.221H702l-1.594-4.462-.319,4.462h-2.415l-.8-2.251-.161,2.251H681.026Z"
        transform="translate(-422.132 -223.153)" fill="#2f2e41" />
    <path id="Path_44" data-name="Path 44"
        d="M706.42,464.471a1.96,1.96,0,0,1-.156-2.081c2.343-4.456,5.623-12.69,1.269-17.768l-.313-.365h12.64v18.977l-11.482,2.026a2.034,2.034,0,0,1-.352.031,1.981,1.981,0,0,1-1.606-.82Z"
        transform="translate(-433.322 -227.124)" fill="#2f2e41" />
    <path id="Path_45" data-name="Path 45" d="M212.9,674.993l6.707,2.4,12.438-24.732-9.9-3.538Z"
        transform="translate(-87.254 -269.418)" fill="#9f616a" />
    <path id="Path_46" data-name="Path 46"
        d="M432.6,788.891l3.107-8.692,13.21,4.721a8.95,8.95,0,0,1,5.41,11.427l-.1.273Z"
        transform="translate(-310.987 -377.425)" fill="#2f2e41" />
    <path id="Path_47" data-name="Path 47" d="M291.835,685.7h7.123l3.389-27.475H291.834Z"
        transform="translate(-122.567 -273.491)" fill="#9f616a" />
    <path id="Path_48" data-name="Path 48"
        d="M515.548,793.066h14.029a8.94,8.94,0,0,1,8.94,8.94v.29H515.548Z"
        transform="translate(-348.097 -383.181)" fill="#2f2e41" />
    <path id="Path_49" data-name="Path 49" d="M489.459,474.673l3.1-6.121s11.54,2.891,12.59,9.58Z"
        transform="translate(-336.425 -237.994)" fill="#f1f1f1" />
    <path id="Path_50" data-name="Path 50"
        d="M228.038,516.019l8.424,47.012L214.093,602.59l13.363,5.229,22.66-38.347,2.905-10.458,1.743,54.616,12.052-.366,5.525-51-8.863-47.409Z"
        transform="translate(-87.786 -209.348)" fill="#2f2e41" />
    <path id="Path_51" data-name="Path 51"
        d="M478.512,557.776a77.751,77.751,0,0,1-20.41-2.4l-.285-.061,6.446-29.888.29-27.569c0-11.683,7.689-20.3,8.756-21.091a5.026,5.026,0,0,1,2.673-3.285c2.565-1.164,5.7.233,5.831.293l9.407,3.527.044.13c.113.334,12.5,41.01,12.5,41.01s-.75,35.54-1.011,36.7C502.757,555.144,485.388,557.776,478.512,557.776Z"
        transform="translate(-322.268 -239.991)" fill="#3f3d56" />
    <circle id="Ellipse_2" data-name="Ellipse 2" cx="12.714" cy="12.714" r="12.714"
        transform="translate(153.04 203.202)" fill="#9f616a" />
    <path id="Path_52" data-name="Path 52" d="M259.823,432.715l22.244,31.035,3.285-14.493Z"
        transform="translate(-108.245 -172.597)" opacity="0.2" />
    <path id="Path_53" data-name="Path 53"
        d="M590.889,552.314a5.456,5.456,0,0,1-8.192-1.7l-19.146,3.065L567.7,544.5l17.545-1.5a5.486,5.486,0,0,1,5.645,9.319Z"
        transform="translate(-369.574 -271.079)" fill="#9f616a" />
    <path id="Path_54" data-name="Path 54" d="M345.842,455.292l6.879-.675,1.906,9.6-8.656.153Z"
        transform="translate(-146.73 -182.397)" fill="#f1f1f1" />
    <path id="Path_55" data-name="Path 55"
        d="M541.778,533.683l-33.692-3-17.012-27.055-.052-.239a9.314,9.314,0,0,1,17.388-6.237l9.987,19.48,20.155,3.047Z"
        transform="translate(-337.027 -248.522)" fill="#3f3d56" />
    <path id="Path_56" data-name="Path 56"
        d="M490.46,438.606l10.553.379c.643.023,2.389-6.919,2.618-8.359a3.931,3.931,0,0,1,4.1-3.18c.79.075,2.782-1.4,4.837-3.149a7.751,7.751,0,0,0-.587-12.352q-.176-.115-.345-.21a18.779,18.779,0,0,0-8.967-2.061,16.768,16.768,0,0,0-8.173,1.648c-4.437,2.384-6.8,7.593-7.006,12.626s1.406,9.953,3.237,14.646"
        transform="translate(-335.536 -211.651)" fill="#2f2e41" />
    <path id="Path_57" data-name="Path 57"
        d="M638.466,809.777H227.553a.553.553,0,1,1,0-1.105H638.686a.553.553,0,0,1,.553.553C639.239,809.53,638.772,809.777,638.466,809.777Z"
        transform="translate(-219 -390.164)" fill="#cbcbcb" />
  </g>
</svg>
