<svg xmlns="http://www.w3.org/2000/svg" width="341.813" height="268.556"
    viewBox="0 0 341.813 268.556">
  <g id="Group_34" data-name="Group 34" transform="translate(-70.494 -146)">
    <path id="Path_64" data-name="Path 64"
        d="M878.082,531.63l.11,83.121a5.827,5.827,0,0,1-5.812,5.829l-34.527.051c9.72-18.183,15.223-46.8,15.191-68.862a129.8,129.8,0,0,0-2.64-25.918l21.849-.032A5.827,5.827,0,0,1,878.082,531.63Z"
        transform="translate(-541.933 -210.551)" fill="#00c5fb" />
    <path id="Path_65" data-name="Path 65"
        d="M629.969,739.685H289.255a.549.549,0,1,1,0-1.1H629.969a.549.549,0,0,1,0,1.1Z"
        transform="translate(-218.211 -325.129)" fill="#3f3d56" />
    <path id="Path_66" data-name="Path 66"
        d="M743.584,483.955l-61.534-.241,5.984-19.907a7.66,7.66,0,0,1,7.293-5.423h.029l35.122.138a7.66,7.66,0,0,1,7.279,5.48Z"
        transform="translate(-458.032 -174.236)" fill="#3f3d56" />
    <path id="Path_68" data-name="Path 68"
        d="M725.5,617.252H555.671a7.854,7.854,0,0,1-7.845-7.845V519.878a7.854,7.854,0,0,1,7.845-7.845H725.5a7.854,7.854,0,0,1,7.845,7.845v89.529A7.854,7.854,0,0,1,725.5,617.252Zm-169.828-104.3a6.93,6.93,0,0,0-6.922,6.922v89.529a6.93,6.93,0,0,0,6.922,6.922H725.5a6.93,6.93,0,0,0,6.922-6.922V519.878a6.93,6.93,0,0,0-6.922-6.922Z"
        transform="translate(-385.75 -203.127)" fill="#3f3d56" />
    <path id="Path_69" data-name="Path 69"
        d="M743.016,488.378H728.249a3.923,3.923,0,1,1,0-7.845h14.768a3.923,3.923,0,1,1,0,7.845Z"
        transform="translate(-480.798 -186.164)" fill="#fff" />
    <path id="Path_70" data-name="Path 70"
        d="M707.9,620.179a35.073,35.073,0,1,1,35.073-35.073A35.073,35.073,0,0,1,707.9,620.179Zm0-69.223a34.15,34.15,0,1,0,34.15,34.15A34.15,34.15,0,0,0,707.9,550.956Z"
        transform="translate(-453.064 -223.591)" fill="#3f3d56" />
    <path id="Path_71" data-name="Path 71"
        d="M721.9,622.182a23.074,23.074,0,1,1,23.074-23.074A23.074,23.074,0,0,1,721.9,622.182Zm0-45.226a22.151,22.151,0,1,0,22.151,22.151A22.151,22.151,0,0,0,721.9,576.956Z"
        transform="translate(-467.066 -237.592)" fill="#3f3d56" />
    <circle id="Ellipse_9" data-name="Ellipse 9" cx="17.537" cy="17.537" r="17.537"
        transform="translate(237.298 343.979)" fill="#ccc" />
    <path id="Path_72" data-name="Path 72"
        d="M722.044,612.57a11.537,11.537,0,0,1,9.92-11.422,11.537,11.537,0,1,0,0,22.844A11.538,11.538,0,0,1,722.044,612.57Z"
        transform="translate(-477.824 -251.055)" fill="#fff" />
    <path id="Path_73" data-name="Path 73"
        d="M887.9,500.032H864.826v-.461a11.537,11.537,0,1,1,23.074,0Zm-22.142-.923h21.209a10.614,10.614,0,0,0-21.209,0Z"
        transform="translate(-556.459 -190.203)" fill="#3f3d56" />
    <path id="Path_74" data-name="Path 74"
        d="M567.441,531.263a4.615,4.615,0,1,1,4.615-4.615A4.615,4.615,0,0,1,567.441,531.263Zm0-8.307a3.692,3.692,0,1,0,3.692,3.692,3.692,3.692,0,0,0-3.692-3.692Z"
        transform="translate(-393.828 -208.513)" fill="#3f3d56" />
    <circle id="Ellipse_10" data-name="Ellipse 10" cx="2.307" cy="2.307" r="2.307"
        transform="translate(171.305 315.828)" fill="#00c5fb" />
    <circle id="Ellipse_11" data-name="Ellipse 11" cx="2.307" cy="2.307" r="2.307"
        transform="translate(183.304 315.828)" fill="#ccc" />
    <circle id="Ellipse_12" data-name="Ellipse 12" cx="2.307" cy="2.307" r="2.307"
        transform="translate(195.303 315.828)" fill="#ccc" />
    <path id="Path_75" data-name="Path 75"
        d="M593.441,531.263a4.615,4.615,0,1,1,4.615-4.615A4.615,4.615,0,0,1,593.441,531.263Zm0-8.307a3.692,3.692,0,1,0,3.692,3.692,3.692,3.692,0,0,0-3.692-3.692Z"
        transform="translate(-407.829 -208.513)" fill="#3f3d56" />
    <path id="Path_76" data-name="Path 76"
        d="M619.441,531.263a4.615,4.615,0,1,1,4.615-4.615A4.615,4.615,0,0,1,619.441,531.263Zm0-8.307a3.692,3.692,0,1,0,3.692,3.692,3.692,3.692,0,0,0-3.692-3.692Z"
        transform="translate(-421.831 -208.513)" fill="#3f3d56" />
    <rect id="Rectangle_14" data-name="Rectangle 14" width="59.994" height="0.923"
        transform="translate(162.537 348.997)" fill="#3f3d56" />
    <rect id="Rectangle_15" data-name="Rectangle 15" width="58.503" height="0.923"
        transform="translate(162.537 367.573)" fill="#3f3d56" />
    <rect id="Rectangle_16" data-name="Rectangle 16" width="59.994" height="0.923"
        transform="translate(287.139 348.997)" fill="#3f3d56" />
    <rect id="Rectangle_17" data-name="Rectangle 17" width="58.503" height="0.923"
        transform="translate(288.523 367.573)" fill="#3f3d56" />
    <path id="Path_92" data-name="Path 92"
        d="M267.333,358.134H173.845a3.227,3.227,0,0,1-3.224-3.224V302.256a3.227,3.227,0,0,1,3.224-3.224h93.487a3.227,3.227,0,0,1,3.224,3.224V354.91a3.227,3.227,0,0,1-3.223,3.224Zm-93.487-58.385a2.51,2.51,0,0,0-2.507,2.507V354.91a2.51,2.51,0,0,0,2.507,2.507h93.487a2.51,2.51,0,0,0,2.507-2.507V302.256a2.51,2.51,0,0,0-2.507-2.507Z"
        transform="translate(-88.622 -88.424)" fill="#3f3d56" />
    <circle id="Ellipse_14" data-name="Ellipse 14" cx="13.368" cy="13.368" r="13.368"
        transform="translate(102.675 220.834)" fill="#e6e6e6" />
    <path id="Path_93" data-name="Path 93"
        d="M281.012,359.258,265.32,332.078a1.118,1.118,0,0,0-1.936,0l-9.576,16.587-14.276-24.728a1.433,1.433,0,0,0-2.482,0l-20.119,34.847a1.433,1.433,0,0,0,1.241,2.149h61.873a1.117,1.117,0,0,0,.967-1.676Z"
        transform="translate(-113.456 -101.45)" fill="#004a86" />
    <path id="Path_94" data-name="Path 94"
        d="M370.861,205.212H297.814a2.522,2.522,0,0,1-2.519-2.519V161.552a2.522,2.522,0,0,1,2.519-2.519h73.047a2.522,2.522,0,0,1,2.519,2.519v41.142A2.522,2.522,0,0,1,370.861,205.212Zm-73.047-45.62a1.961,1.961,0,0,0-1.959,1.959v41.142a1.961,1.961,0,0,0,1.959,1.959h73.047a1.961,1.961,0,0,0,1.959-1.959V161.552a1.961,1.961,0,0,0-1.959-1.959Z"
        transform="translate(-155.76 -13.033)" fill="#ccc" />
    <circle id="Ellipse_15" data-name="Ellipse 15" cx="10.445" cy="10.445" r="10.445"
        transform="translate(155.69 153.99)" fill="#f2f2f2" />
    <path id="Path_95" data-name="Path 95"
        d="M381.55,206.09l-12.261-21.237a.873.873,0,0,0-1.512,0l-7.483,12.96-11.155-19.321a1.12,1.12,0,0,0-1.939,0l-15.72,27.228a1.12,1.12,0,0,0,.969,1.679h48.345a.873.873,0,0,0,.756-1.31Z"
        transform="translate(-175.164 -23.211)" fill="#e6e6e6" />
  </g>
</svg>
