<svg xmlns="http://www.w3.org/2000/svg" width="64.032" height="55.923" viewBox="0 0 64.032 55.923">
  <g id="Group_281" data-name="Group 281" transform="translate(-345.999 -49.48)">
    <g id="Group_161" data-name="Group 161" transform="translate(46.638 -0.52)">
      <g id="Group_33" data-name="Group 33" transform="translate(323.949 50)">
        <g id="Group_10" data-name="Group 10" transform="translate(0.824)">
          <path id="Path_8" data-name="Path 8"
              d="M19.7,2.492A29.593,29.593,0,0,0,8.273,0c-2.685-.045-4.923,1.477-5.1,4A26.319,26.319,0,0,0,5.77,16.85,2.046,2.046,0,0,0,8.371,18a1.837,1.837,0,0,0,1.4-2.164c-.077-1.308-.233-2.611-.251-3.914a5.158,5.158,0,0,1,5.489-5.526c1.261.011,2.516.188,3.776.267a1.98,1.98,0,0,0,2.273-1.67,2.079,2.079,0,0,0-1.358-2.5"
              transform="translate(-3.112 0.004)" fill="#00c5fb" />
        </g>
        <g id="Group_11" data-name="Group 11" transform="translate(0 10.77)">
          <path id="Path_9" data-name="Path 9"
              d="M12.843,40.833a1.976,1.976,0,0,0-1.509,2.378c.106,1.3.277,2.608.277,3.911A5.2,5.2,0,0,1,6.534,52.45q-.111,0-.222,0c-1.165,0-2.336-.127-3.5-.233C1.376,52.091.427,52.582.1,53.676c-.351,1.158.188,2.106,1.565,2.748,3.319,1.546,6.85,2.183,12.075,2.561,2.418.233,4.226-2.389,4.247-4.686a27.558,27.558,0,0,0-2.616-12.194,2.043,2.043,0,0,0-2.526-1.274"
              transform="translate(0.005 -40.751)" fill="#004a86" />
        </g>
      </g>
    </g>
    <g id="Group_12" data-name="Group 12" transform="translate(345.999 87.5)">
      <path id="Path_10" data-name="Path 10"
          d="M335.709,99.168a1.342,1.342,0,0,0,1.052.392h.368a.153.153,0,0,1,.146.064.242.242,0,0,1,.035.117v1.829a.242.242,0,0,1-.035.117.16.16,0,0,1-.146.064h-1.134a2.954,2.954,0,0,1-2.373-.959,3.8,3.8,0,0,1-.824-2.566V92.692h-.6c-1.789,0-2.689.824-2.689,2.467v6.6h-6.576a3.966,3.966,0,0,1-4.471-4.238V92.7h2.56v4.419q0,2.446,2.689,2.449h3.25v-4.8a4.429,4.429,0,0,1,1.075-3.045,4.314,4.314,0,0,1,3.4-1.216h3.928v7.33A1.976,1.976,0,0,0,335.709,99.168Zm-13.894,6.494v-2.3h2.63v2.3Zm3.653,0v-2.3h2.63v2.3Z"
          transform="translate(-318.46 -87.759)" fill="#004a86" />
      <path id="Path_11" data-name="Path 11"
          d="M354.849,97.7a2.16,2.16,0,0,0,1.771.678.153.153,0,0,1,.146.064.242.242,0,0,1,.035.117v1.829a.242.242,0,0,1-.035.117.159.159,0,0,1-.146.064,3.515,3.515,0,0,1-1.315-.292,3.741,3.741,0,0,1-1.28-.877,3.282,3.282,0,0,1-2.63,1.169h-1.134a.153.153,0,0,1-.146-.064.242.242,0,0,1-.035-.117V98.563a.242.242,0,0,1,.035-.117.159.159,0,0,1,.146-.064h.368a1.638,1.638,0,0,0,1.251-.573,2.2,2.2,0,0,0,.52-1.526v-4.77h2.56v5.173A4.557,4.557,0,0,1,354.849,97.7Zm-2.484-7.75v-2.3H355v2.3Z"
          transform="translate(-331.598 -86.575)" fill="#004a86" />
      <path id="Path_12" data-name="Path 12"
          d="M374.216,91.929a4.173,4.173,0,0,1,1.707,1.66,4.85,4.85,0,0,1,.585,2.4,5.05,5.05,0,0,1-.327,1.865,2.332,2.332,0,0,0,1.642.532.153.153,0,0,1,.146.064.242.242,0,0,1,.035.117v1.829a.242.242,0,0,1-.035.117.16.16,0,0,1-.146.064,3.462,3.462,0,0,1-1.344-.3,3.685,3.685,0,0,1-1.286-.906,4.336,4.336,0,0,1-3.127,1.2H361.141A.153.153,0,0,1,361,100.5a.242.242,0,0,1-.035-.117V98.557A.242.242,0,0,1,361,98.44a.16.16,0,0,1,.146-.064h1.829V91.508h2.56v1.917a10.916,10.916,0,0,1,6.009-2.1A5.571,5.571,0,0,1,374.216,91.929Zm-6.009,2.157a13.846,13.846,0,0,0-2.677,1.514v2.776h6.1a2.128,2.128,0,0,0,1.654-.631,2.449,2.449,0,0,0,.573-1.724,2.352,2.352,0,0,0-.766-1.789,2.887,2.887,0,0,0-2.011-.678A7.436,7.436,0,0,0,368.208,94.085Zm1.905-4.132v-2.3h2.63v2.3Z"
          transform="translate(-336.119 -86.575)" fill="#004a86" />
      <path id="Path_13" data-name="Path 13"
          d="M389.47,107.22v-2.3h2.63v2.3Zm.2-3.91a.153.153,0,0,1-.146-.064.242.242,0,0,1-.035-.117V101.3a.242.242,0,0,1,.035-.117.159.159,0,0,1,.146-.064h3.1V94.25h2.537v9.06Zm3.454,3.91v-2.3h2.63v2.3Z"
          transform="translate(-347.965 -89.317)" fill="#004a86" />
      <path id="Path_14" data-name="Path 14"
          d="M406.921,97.219a1.342,1.342,0,0,0,1.052.392h.368a.153.153,0,0,1,.146.064.243.243,0,0,1,.035.117v1.829a.243.243,0,0,1-.035.117.16.16,0,0,1-.146.064h-1.134a2.954,2.954,0,0,1-2.373-.959,3.8,3.8,0,0,1-.824-2.566V85.81h2.56V95.875A1.984,1.984,0,0,0,406.921,97.219Z"
          transform="translate(-354.006 -85.81)" fill="#004a86" />
      <path id="Path_15" data-name="Path 15"
          d="M420.984,91.689v8.879h-9.7a.153.153,0,0,1-.146-.064.242.242,0,0,1-.035-.117V98.557a.242.242,0,0,1,.035-.117.16.16,0,0,1,.146-.064h2.268a3.235,3.235,0,0,1-1.169-2.689,3.943,3.943,0,0,1,.649-2.174,4.619,4.619,0,0,1,1.789-1.6,5.425,5.425,0,0,1,2.548-.6A26.912,26.912,0,0,1,420.984,91.689Zm-7-1.736v-2.3h2.63v2.3Zm1.058,6.067a2.215,2.215,0,0,0,.678,1.683,2.575,2.575,0,0,0,1.754.678h.953V93.647a5.774,5.774,0,0,0-1.151-.129C415.793,93.518,415.045,94.354,415.045,96.02Zm2.6-6.067v-2.3h2.63v2.3Z"
          transform="translate(-356.952 -86.575)" fill="#004a86" />
    </g>
  </g>
</svg>
