<svg xmlns="http://www.w3.org/2000/svg" width="297.257" height="333.145"
    viewBox="0 0 297.257 333.145">
  <g id="Group_24" data-name="Group 24" transform="translate(0 0)">
    <path id="Path_96" data-name="Path 96"
        d="M451.426,165.279H449.6V115.134a29.023,29.023,0,0,0-29.022-29.023H314.334a29.023,29.023,0,0,0-29.023,29.023v275.1a29.023,29.023,0,0,0,29.023,29.023H420.573A29.023,29.023,0,0,0,449.6,390.234V200.973h1.831Z"
        transform="translate(-285.311 -86.111)" fill="#e6e6e6" />
    <path id="Path_97" data-name="Path 97"
        d="M431.23,102.606H417.362a10.3,10.3,0,0,1-9.534,14.186H346.965a10.3,10.3,0,0,1-9.534-14.186H324.479a21.674,21.674,0,0,0-21.674,21.674v274.7a21.674,21.674,0,0,0,21.674,21.674H431.23A21.674,21.674,0,0,0,452.9,398.976h0V124.28a21.674,21.674,0,0,0-21.674-21.674Z"
        transform="translate(-294.797 -95.055)" fill="#fff" />
    <path id="a2804879-ded6-4045-b20f-1f1dde9b938b"
        d="M457.033,530.7h-128a2.373,2.373,0,0,1-2.37-2.37v-31.75a2.373,2.373,0,0,1,2.37-2.37h128a2.373,2.373,0,0,1,2.37,2.37v31.751A2.373,2.373,0,0,1,457.033,530.7Zm-128-35.543a1.424,1.424,0,0,0-1.422,1.422v31.751a1.424,1.424,0,0,0,1.422,1.422h128a1.424,1.424,0,0,0,1.422-1.422V496.583a1.424,1.424,0,0,0-1.422-1.422Z"
        transform="translate(-307.735 -307.401)" fill="#e6e6e6" />
    <circle id="b9ad11c9-d8a0-4df6-8741-900b9ec46a35" cx="9.955" cy="9.955" r="9.955"
        transform="translate(27.937 195.102)" fill="#e6e6e6" />
    <path id="bd261eec-7ae0-49b0-bf26-57ff03972605"
        d="M416.351,519.573a1.659,1.659,0,1,0,0,3.319h78.221a1.659,1.659,0,1,0,.064-3.318H416.351Z"
        transform="translate(-355.467 -321.152)" fill="#e6e6e6" />
    <path id="e80b4447-8c34-435b-ba6c-5300a190ab24"
        d="M416.351,541.321a1.659,1.659,0,1,0,0,3.318h78.221a1.659,1.659,0,1,0,.054-3.318H416.351Z"
        transform="translate(-355.467 -332.945)" fill="#e6e6e6" />
    <path id="e55fcb7d-3a3b-45d8-b167-72fb2263dd92"
        d="M457.033,646.694h-128a2.373,2.373,0,0,1-2.37-2.37V612.573a2.373,2.373,0,0,1,2.37-2.37h128a2.373,2.373,0,0,1,2.37,2.37v31.751a2.373,2.373,0,0,1-2.37,2.37Zm-128-35.543a1.424,1.424,0,0,0-1.422,1.422v31.751a1.424,1.424,0,0,0,1.422,1.422h128a1.424,1.424,0,0,0,1.422-1.422V612.573a1.424,1.424,0,0,0-1.422-1.422Z"
        transform="translate(-307.735 -370.296)" fill="#e6e6e6" />
    <circle id="a50d232f-7710-43e4-8fa9-6ef0443fc454" cx="9.955" cy="9.955" r="9.955"
        transform="translate(27.937 248.197)" fill="#e6e6e6" />
    <path id="e49b4965-a9e9-4371-9134-194e44e65c31"
        d="M416.351,635.563a1.659,1.659,0,1,0,0,3.318h78.221a1.659,1.659,0,1,0,.054-3.318H416.351Z"
        transform="translate(-355.467 -384.047)" fill="#e6e6e6" />
    <path id="abc4586a-ac92-4255-aae6-84f53baad571"
        d="M416.351,657.311a1.659,1.659,0,1,0,0,3.318h78.221a1.659,1.659,0,0,0,.054-3.318H416.351Z"
        transform="translate(-355.467 -395.84)" fill="#e6e6e6" />
    <path id="a9e593af-a319-4e97-9065-f0c2c04624d5"
        d="M412.42,323.3a45.017,45.017,0,0,1-45.036-45v-.038c0-.094,0-.194.005-.288A45.036,45.036,0,1,1,412.425,323.3h-.005Zm0-89.125A44.182,44.182,0,0,0,368.338,278c-.005.1-.005.183-.005.258a44.093,44.093,0,1,0,44.093-44.088Z"
        transform="translate(-329.815 -165.883)" fill="#e6e6e6" />
    <circle id="Ellipse_16" data-name="Ellipse 16" cx="18.31" cy="18.31" r="18.31"
        transform="translate(125.935 175.249)" fill="#fff" />
    <path id="Path_98" data-name="Path 98"
        d="M569.123,515.673h-9.936a4.759,4.759,0,1,1,0-9.519h10a4.76,4.76,0,1,1-.063,9.519Z"
        transform="translate(-431.236 -313.876)" fill="#004a86" />
    <rect id="Rectangle_20" data-name="Rectangle 20" width="148.328" height="1.026"
        transform="translate(148.929 332.031)" fill="#3f3d56" />
    <path id="Path_99" data-name="Path 99"
        d="M627.257,585.571a3.007,3.007,0,0,1-.288-.576l-2.364-6.329a2.979,2.979,0,0,1,1.746-3.828l52.753-19.7a2.978,2.978,0,0,1,3.828,1.746l2.363,6.33a2.975,2.975,0,0,1-1.747,3.828l-52.752,19.7a2.979,2.979,0,0,1-3.54-1.17Z"
        transform="translate(-470.559 -338.732)" fill="#ffa163" />
    <path id="Path_100" data-name="Path 100"
        d="M715.79,551.582l-21.452,8.554a2.747,2.747,0,0,0-1.874,3.3l2.49,9.968a2.746,2.746,0,0,0,3.834,1.819L720.3,565.094a2.752,2.752,0,0,0,1.613-3.532l-2.586-8.366A2.751,2.751,0,0,0,715.79,551.582Z"
        transform="translate(-506.042 -338.415)" fill="#2f2e41" />
    <path id="Path_101" data-name="Path 101"
        d="M803.6,614.755a2.978,2.978,0,0,1-3.155-1.987L782.08,559.536a2.975,2.975,0,0,1,1.842-3.783l6.387-2.2a2.977,2.977,0,0,1,3.783,1.843l18.363,53.233a2.979,2.979,0,0,1-1.843,3.783l-6.387,2.2A3,3,0,0,1,803.6,614.755Z"
        transform="translate(-554.592 -339.488)" fill="#ffa163" />
    <path id="Path_102" data-name="Path 102"
        d="M795.581,553.583l7.048,21.993a2.747,2.747,0,0,1-1.351,3.542L792,583.539a2.747,2.747,0,0,1-3.843-1.8L782.287,558.7a2.752,2.752,0,0,1,1.7-3.492l8.1-3.327A2.751,2.751,0,0,1,795.581,553.583Z"
        transform="translate(-554.712 -338.59)" fill="#2f2e41" />
    <path id="Path_103" data-name="Path 103"
        d="M753.363,738.361h-6.757a2.979,2.979,0,0,1-2.975-2.975V679.074a2.979,2.979,0,0,1,2.975-2.975h6.756a2.979,2.979,0,0,1,2.975,2.975v56.311A2.979,2.979,0,0,1,753.363,738.361Z"
        transform="translate(-533.832 -406.028)" fill="#2f2e41" />
    <path id="Path_104" data-name="Path 104"
        d="M782.555,738.361H775.8a2.979,2.979,0,0,1-2.975-2.975V679.074A2.979,2.979,0,0,1,775.8,676.1h6.756a2.979,2.979,0,0,1,2.975,2.975v56.311A2.979,2.979,0,0,1,782.555,738.361Z"
        transform="translate(-549.661 -406.028)" fill="#2f2e41" />
    <path id="Path_105" data-name="Path 105"
        d="M766.087,612.214h-30.7a3.208,3.208,0,0,1-3.2-3.2v-49.87a18.553,18.553,0,1,1,37.107,0v49.87a3.208,3.208,0,0,1-3.2,3.2Z"
        transform="translate(-527.625 -332.547)" fill="#ccc" />
    <path id="Path_106" data-name="Path 106"
        d="M797.9,619.516H782.341v-87.96l.289.079a20.774,20.774,0,0,1,15.275,20Z"
        transform="translate(-554.822 -327.65)" fill="#2f2e41" />
    <path id="Path_107" data-name="Path 107"
        d="M741.89,619.516H726.326V551.633a20.774,20.774,0,0,1,15.275-20l.289-.079Z"
        transform="translate(-524.448 -327.651)" fill="#2f2e41" />
    <circle id="Ellipse_17" data-name="Ellipse 17" cx="24.499" cy="24.499" r="24.499"
        transform="translate(198.382 148.726)" fill="#ffa163" />
    <path id="Path_108" data-name="Path 108"
        d="M762.495,408.451s1.373-37.994-16.479-25.634c0,0-10.3-34.561-35.476,17.166l-7.324,7.324s32.958-4.578,63.628,9.613Z"
        transform="translate(-511.917 -240.867)" fill="#2f2e41" />
    <path id="Path_109" data-name="Path 109"
        d="M765.54,472.575a8.422,8.422,0,0,1-4.848-1.154,3.723,3.723,0,0,1-1.465-2.78,2.5,2.5,0,0,1,.852-2.057,3.232,3.232,0,0,1,3.057-.44l-1.236-9.03.907-.124L764.26,467.6l-.757-.348a2.772,2.772,0,0,0-2.833.025,1.609,1.609,0,0,0-.528,1.325,2.814,2.814,0,0,0,1.09,2.073c1.129.825,2.63.931,4.333.979Z"
        transform="translate(-542.286 -287.217)" fill="#2f2e41" />
    <rect id="Rectangle_21" data-name="Rectangle 21" width="4.931" height="0.916"
        transform="translate(210.198 170.676)" fill="#2f2e41" />
    <rect id="Rectangle_22" data-name="Rectangle 22" width="4.931" height="0.916"
        transform="translate(225.762 170.676)" fill="#2f2e41" />
    <path id="Path_110" data-name="Path 110"
        d="M629.545,580.4a2.747,2.747,0,0,1-3.647-1.336l-15.8-34.05a2.747,2.747,0,0,1,4.983-2.312l15.8,34.05a2.747,2.747,0,0,1-1.335,3.647Z"
        transform="translate(-461.287 -332.834)" fill="#3f3d56" />
    <path id="Path_111" data-name="Path 111"
        d="M585.975,512.77a1.831,1.831,0,0,1-1.831-1.831V487.615H561.256a1.831,1.831,0,0,1,0-3.662h24.719a1.831,1.831,0,0,1,1.831,1.831v25.155a1.831,1.831,0,0,1-1.831,1.831Z"
        transform="translate(-433.947 -301.838)" fill="#004a86" />
    <path id="Path_112" data-name="Path 112"
        d="M581.383,502.916a21.972,21.972,0,1,1,10.684-29.179,21.972,21.972,0,0,1-10.684,29.179ZM565.2,468.036a16.479,16.479,0,1,0,21.884,8.013,16.479,16.479,0,0,0-21.884-8.013Z"
        transform="translate(-428.922 -289.396)" fill="#3f3d56" />
  </g>
</svg>
