<svg id="Group_296" data-name="Group 296" xmlns="http://www.w3.org/2000/svg"
    xmlns:xlink="http://www.w3.org/1999/xlink" width="22.533" height="22.537"
    viewBox="0 0 22.533 22.537">
  <defs>
    <clipPath id="clip-path">
      <rect id="Rectangle_91" data-name="Rectangle 91" width="22.533" height="22.537"
          fill="#b7b7b7" />
    </clipPath>
  </defs>
  <g id="Group_295" data-name="Group 295" clip-path="url(#clip-path)">
    <path id="Path_259" data-name="Path 259"
        d="M22.527,128.992a1.642,1.642,0,0,0-1.734-1.289q-9.494,0-18.987,0a1.656,1.656,0,0,0-1.747,1.353,1.777,1.777,0,0,0-.024.35q0,5.81,0,11.619a1.637,1.637,0,0,0,1.286,1.666.4.4,0,0,1,.077.039H21.2a5.639,5.639,0,0,0,.687-.323,1.721,1.721,0,0,0,.677-1.042V129.041c-.013-.016-.032-.031-.038-.049M8.659,138.5c-.843,0-1.687,0-2.53,0s-1.687,0-2.53,0a.708.708,0,0,1-.718-.533.657.657,0,0,1,.306-.755A.892.892,0,0,1,3.6,137.1q2.53-.011,5.06,0a.706.706,0,1,1,0,1.408m0-2.817c-.843,0-1.687,0-2.53,0s-1.687,0-2.53,0a.708.708,0,0,1-.718-.533.657.657,0,0,1,.306-.755.9.9,0,0,1,.414-.116q2.53-.011,5.06,0a.705.705,0,1,1,0,1.407m0-2.817c-.851,0-1.7,0-2.552,0s-1.673,0-2.508,0a.709.709,0,0,1-.719-.533.658.658,0,0,1,.307-.755.891.891,0,0,1,.414-.116q2.53-.012,5.06,0a.706.706,0,1,1,0,1.408m11.091,5.289A1.657,1.657,0,0,1,18,139.914q-2.475,0-4.949,0a1.659,1.659,0,0,1-1.751-1.753q0-1.484,0-2.97c0-.968.013-1.937,0-2.9a1.7,1.7,0,0,1,1.765-1.765q2.462.049,4.926,0a1.7,1.7,0,0,1,1.767,1.763c-.015,1.958,0,3.916,0,5.874"
        transform="translate(-0.032 -120.194)" fill="#b7b7b7" />
    <path id="Path_260" data-name="Path 260"
        d="M22.533,1.364V4.27c-.018.055-.039.109-.055.164a1.637,1.637,0,0,1-1.56,1.2q-9.648,0-19.3,0A1.626,1.626,0,0,1,0,4Q0,2.817,0,1.628A1.625,1.625,0,0,1,1.623,0q9.648,0,19.3,0a1.59,1.59,0,0,1,.942.314,1.832,1.832,0,0,1,.673,1.049"
        transform="translate(0 0)" fill="#b7b7b7" />
  </g>
</svg>
