<svg id="Group_339" data-name="Group 339" xmlns="http://www.w3.org/2000/svg"
    xmlns:xlink="http://www.w3.org/1999/xlink" width="45.596" height="43.677"
    viewBox="0 0 45.596 43.677">
    <defs>
        <clipPath id="clip-path">
            <rect id="Rectangle_92" data-name="Rectangle 92" width="45.596" height="43.677"
                fill="#b7b7b7" />
        </clipPath>
    </defs>
    <g id="Group_338" data-name="Group 338" clip-path="url(#clip-path)">
        <path id="Path_264" data-name="Path 264"
            d="M40.992,22.126q-.021-9.462-.071-18.921C40.907.9,39.978.005,37.648,0Q20.523,0,3.4,0C.975.005.07.881.063,3.279Q.012,19.537,0,35.795c0,2.172,1.029,3.168,3.173,3.168q9.8.005,19.591,0c.711,0,1.426.046,2.131-.017a1.209,1.209,0,0,0,1.014-1.914,2.41,2.41,0,0,0-1.69-.7c-6.619-.046-13.238-.03-19.859-.03H2.843c0-2.065-.019-3.967.017-5.868a1.562,1.562,0,0,1,.4-.932c1.341-1.475,2.718-2.918,4.255-4.554,2.087,2.132,3.934,4.041,5.807,5.925,1.064,1.071,1.579,1.059,2.669-.019,3.125-3.095,6.254-6.185,9.355-9.3,2.22-2.235,4.4-4.516,6.826-7.019,1.186,1.269,2.117,2.276,3.06,3.274,1.417,1.5,3.455,2.635,3.025,5.208a.315.315,0,0,0,.086.247c.383.327.791.912,1.165.893a2.219,2.219,0,0,0,1.305-.888,1.968,1.968,0,0,0,.181-1.144m-2.833-5.137c-1.655-1.637-3.114-3.089-4.581-4.534-1.195-1.174-1.659-1.174-2.867.026q-7.229,7.182-14.446,14.376c-.5.5-.938,1.06-1.59,1.8C12.751,26.691,11,24.886,9.23,23.1c-1.418-1.431-1.861-1.435-3.26-.031-.966.971-1.9,1.975-3.109,3.239V2.712h35.3Z"
            transform="translate(0 0)" fill="#b7b7b7" />
        <path id="Path_265" data-name="Path 265"
            d="M268.651,244.483a1.989,1.989,0,0,1-1.366.945c-1.716.114-3.444.044-5.36.044,0,1.62,0,3.112,0,4.6,0,.4.12.921-.082,1.168-.373.455-.97,1.058-1.424,1.02a1.766,1.766,0,0,1-1.094-1.3c-.132-1.757-.052-3.529-.052-5.485-1.789,0-3.34-.006-4.89,0-.98,0-2.016-.009-1.971-1.349.043-1.3,1.082-1.315,2.052-1.315h4.8c0-1.767.021-3.4-.008-5.029-.017-.957.224-1.774,1.3-1.793s1.368.806,1.368,1.749c0,1.634,0,3.269,0,5.074,1.706,0,3.29-.022,4.873.013a2.272,2.272,0,0,1,1.373.317c.325.3.639,1.042.482,1.337"
            transform="translate(-223.097 -208.59)" fill="#b7b7b7" />
        <path id="Path_266" data-name="Path 266"
            d="M66.552,50.175a4.571,4.571,0,0,0-4.645,4.5,4.621,4.621,0,0,0,4.531,4.617,4.557,4.557,0,1,0,.114-9.112m-.125,6.472a2,2,0,0,1-1.873-1.9,1.919,1.919,0,0,1,1.968-1.9,1.686,1.686,0,0,1,1.769,1.858,1.8,1.8,0,0,1-1.864,1.933"
            transform="translate(-54.717 -44.349)" fill="#b7b7b7" />
    </g>
</svg>
