<svg xmlns="http://www.w3.org/2000/svg" xmlns:xlink="http://www.w3.org/1999/xlink" width="355.675"
    height="101.006" viewBox="0 0 355.675 101.006">
    <defs>
        <clipPath id="clip-path">
            <rect id="Rectangle_1" data-name="Rectangle 1" width="178.84" height="63.359" />
        </clipPath>
        <clipPath id="clip-path-2">
            <rect id="Rectangle_2" data-name="Rectangle 2" width="16.853" height="84.679" />
        </clipPath>
        <clipPath id="clip-path-3">
            <rect id="Rectangle_3" data-name="Rectangle 3" width="97.76" height="63.359" />
        </clipPath>
    </defs>
    <g id="Group_411" data-name="Group 411" transform="translate(-36 -372)">
        <g id="Group_3" data-name="Group 3" transform="translate(104.931 385.754)">
            <g id="Group_2" data-name="Group 2">
                <g id="Group_1" data-name="Group 1" clip-path="url(#clip-path)">
                    <path id="Path_1" data-name="Path 1"
                        d="M87.334,63.947V54.441c5.386,3.707,11.815,5.849,16.448,5.849,4.228,0,7.181-1.506,7.181-4.054,0-3.764-5.965-4.286-11.873-6.081-4.17-1.216-7.818-2.317-10.135-5.56a9.038,9.038,0,0,1-1.8-5.734,10.606,10.606,0,0,1,4.807-9.093c3.185-2.259,7.355-3.359,12.394-3.359a29.489,29.489,0,0,1,13.494,2.954v8.919a28.363,28.363,0,0,0-14.421-4.054c-4.344,0-7.066,1.39-7.066,3.764,0,7.124,23.745,3.185,23.745,17.432a10.822,10.822,0,0,1-4.749,9.208c-3.185,2.317-7.239,3.475-12.278,3.475A32.015,32.015,0,0,1,87.334,63.947Z"
                        transform="translate(-83.975 -18.31)" fill="#fff" />
                    <path id="Path_2" data-name="Path 2"
                        d="M183.318,27.11h8.687L176.948,68.238h-2.9l-12.8-30.753L148.511,68.238h-2.9L130.5,27.11h8.687L147.7,50.739l9.382-23.629h8.34L174.8,50.739Z"
                        transform="translate(-91.457 -18.431)" fill="#fff" />
                    <path id="Path_3" data-name="Path 3"
                        d="M233.349,67.66l-3.533-8.977h-18.88L207.4,67.66H198.89l16.332-40.54h10.309l16.332,40.54ZM213.832,51.2h13.089l-6.544-16.622Z"
                        transform="translate(-103.265 -18.433)" fill="#fff" />
                    <path id="Path_4" data-name="Path 4"
                        d="M276.647,27.11c8.629,0,13.957,4.575,13.957,12.683s-5.328,12.741-13.957,12.741H265.238V67.65H257.13V27.11Zm-.985,18.069c4.344,0,6.486-1.8,6.486-5.386,0-3.533-2.143-5.328-6.486-5.328H265.238V45.179h10.425Z"
                        transform="translate(-113.32 -18.431)" fill="#fff" />
                </g>
            </g>
        </g>
        <g id="Group_6" data-name="Group 6" transform="translate(274.398 387.327)">
            <g id="Group_5" data-name="Group 5">
                <g id="Group_4" data-name="Group 4" clip-path="url(#clip-path-2)">
                    <path id="Path_5" data-name="Path 5"
                        d="M291.78,75.809a3.424,3.424,0,0,1,3.475-3.649,3.655,3.655,0,1,1-3.475,3.649Z"
                        transform="translate(-288.768 -28.782)" fill="#00c5fb" />
                </g>
            </g>
        </g>
        <g id="Group_9" data-name="Group 9" transform="translate(293.915 385.754)">
            <g id="Group_8" data-name="Group 8">
                <g id="Group_7" data-name="Group 7" clip-path="url(#clip-path-3)">
                    <path id="Path_6" data-name="Path 6"
                        d="M366.673,67.659h-8.108V36.782L343.449,68.238h-2.9L325.438,36.782V67.65H317.33l.058-40.54H329.26L342,53.577,354.743,27.11h11.873Z"
                        transform="translate(-312.697 -18.431)" fill="#fff" />
                    <path id="Path_7" data-name="Path 7"
                        d="M418.923,34.523H396.278v7.818h21.255v7.3H396.278v10.6h22.645V67.65H388.17V27.11h30.753v7.413Z"
                        transform="translate(-324.927 -18.431)" fill="#fff" />
                </g>
            </g>
        </g>
        <g id="Group_10" data-name="Group 10" transform="translate(38.579 372)">
            <path id="Path_8" data-name="Path 8"
                d="M55.035,7.81A92.645,92.645,0,0,0,19.269,0C10.863-.141,3.855,4.624,3.292,12.509,2.275,26.632,5.65,39.977,11.434,52.76c1.6,3.549,4.633,4.435,8.141,3.591,3.458-.827,4.567-3.483,4.377-6.776-.24-4.1-.728-8.174-.786-12.253-.141-10.375,6.8-17.366,17.184-17.3,3.946.033,7.876.587,11.823.836,3.781.223,6.362-1.564,7.115-5.229.736-3.591-.761-6.271-4.253-7.818"
                transform="translate(-3.112 0.004)" fill="#00c5fb" />
        </g>
        <g id="Group_11" data-name="Group 11" transform="translate(36 405.718)">
            <path id="Path_9" data-name="Path 9"
                d="M40.217,41.007c-3.74.918-5.047,3.74-4.724,7.446.331,4.079.869,8.166.869,12.245A16.282,16.282,0,0,1,20.468,77.377q-.347.012-.695,0c-3.649.008-7.314-.4-10.962-.728-4.493-.4-7.463,1.142-8.489,4.567-1.1,3.624.587,6.594,4.9,8.6,10.392,4.84,21.445,6.834,37.8,8.017,7.57.728,13.229-7.479,13.3-14.669a86.275,86.275,0,0,0-8.191-38.174c-1.646-3.475-4.344-4.865-7.909-3.988"
                transform="translate(0.005 -40.751)" fill="#00c5fb" />
        </g>
        <g id="Group_12" data-name="Group 12" transform="translate(281.483 442.998)">
            <path id="Path_10" data-name="Path 10"
                d="M347.371,105.029a2.249,2.249,0,0,0,1.763.656h.617a.257.257,0,0,1,.245.108.406.406,0,0,1,.059.2v3.066a.406.406,0,0,1-.059.2.267.267,0,0,1-.245.108h-1.9a4.951,4.951,0,0,1-3.978-1.607,6.371,6.371,0,0,1-1.381-4.3V94.174h-1.009c-3,0-4.507,1.381-4.507,4.134v11.061H325.955c-2.6,0-4.487-.676-5.692-2.018a7.339,7.339,0,0,1-1.8-5.085V94.184h4.291v7.406q0,4.1,4.507,4.1H332.7V97.642a7.423,7.423,0,0,1,1.8-5.1Q336.315,90.5,340.2,90.5h6.584v12.285A3.312,3.312,0,0,0,347.371,105.029Zm-23.287,10.884v-3.86h4.409v3.86Zm6.123,0v-3.86h4.409v3.86Z"
                transform="translate(-318.46 -85.905)" fill="#fff" />
            <path id="Path_11" data-name="Path 11"
                d="M358.074,104.5a3.62,3.62,0,0,0,2.968,1.136.257.257,0,0,1,.245.108.406.406,0,0,1,.059.2v3.066a.406.406,0,0,1-.059.2.267.267,0,0,1-.245.108,5.892,5.892,0,0,1-2.2-.49,6.27,6.27,0,0,1-2.146-1.47,5.5,5.5,0,0,1-4.409,1.959h-1.9a.257.257,0,0,1-.245-.108.406.406,0,0,1-.059-.2v-3.066a.406.406,0,0,1,.059-.2.267.267,0,0,1,.245-.108H351a2.745,2.745,0,0,0,2.1-.96,3.7,3.7,0,0,0,.872-2.557V94.126h4.291v8.67A7.639,7.639,0,0,1,358.074,104.5ZM353.911,91.51V87.65h4.409v3.86Z"
                transform="translate(-319.102 -85.847)" fill="#fff" />
            <path id="Path_12" data-name="Path 12"
                d="M383.179,94.821A7,7,0,0,1,386.04,97.6a8.131,8.131,0,0,1,.98,4.017,8.464,8.464,0,0,1-.549,3.125,3.908,3.908,0,0,0,2.753.892.257.257,0,0,1,.245.108.406.406,0,0,1,.059.2v3.066a.406.406,0,0,1-.059.2.267.267,0,0,1-.245.108,5.8,5.8,0,0,1-2.253-.509,6.177,6.177,0,0,1-2.155-1.519,7.268,7.268,0,0,1-5.241,2.018h-18.31a.257.257,0,0,1-.245-.108.406.406,0,0,1-.059-.2v-3.066a.406.406,0,0,1,.059-.2.267.267,0,0,1,.245-.108h3.066V94.116h4.291v3.213q5.29-3.527,10.071-3.517A9.338,9.338,0,0,1,383.179,94.821Zm-10.071,3.615a23.209,23.209,0,0,0-4.487,2.537v4.654h10.228a3.567,3.567,0,0,0,2.773-1.058,4.1,4.1,0,0,0,.96-2.89,3.943,3.943,0,0,0-1.283-3,4.838,4.838,0,0,0-3.37-1.136A12.464,12.464,0,0,0,373.108,98.436ZM376.3,91.51V87.65h4.409v3.86Z"
                transform="translate(-319.323 -85.847)" fill="#fff" />
            <path id="Path_13" data-name="Path 13"
                d="M389.47,115.989v-3.86h4.409v3.86Zm.333-6.554a.257.257,0,0,1-.245-.108.405.405,0,0,1-.059-.2v-3.066a.406.406,0,0,1,.059-.2.267.267,0,0,1,.245-.108h5.2V94.25h4.252v15.185Zm5.79,6.554v-3.86H400v3.86Z"
                transform="translate(-319.902 -85.981)" fill="#fff" />
            <path id="Path_14" data-name="Path 14"
                d="M408.889,104.934a2.249,2.249,0,0,0,1.763.656h.617a.257.257,0,0,1,.245.108.407.407,0,0,1,.059.2v3.066a.407.407,0,0,1-.059.2.267.267,0,0,1-.245.108h-1.9a4.951,4.951,0,0,1-3.978-1.607,6.371,6.371,0,0,1-1.381-4.3V85.81H408.3v16.87A3.326,3.326,0,0,0,408.889,104.934Z"
                transform="translate(-320.197 -85.81)" fill="#fff" />
            <path id="Path_15" data-name="Path 15"
                d="M427.667,94.42V109.3H411.4a.257.257,0,0,1-.245-.108.406.406,0,0,1-.059-.2v-3.066a.406.406,0,0,1,.059-.2.267.267,0,0,1,.245-.108h3.8a5.422,5.422,0,0,1-1.959-4.507,6.61,6.61,0,0,1,1.087-3.644,7.743,7.743,0,0,1,3-2.684,9.093,9.093,0,0,1,4.271-1A45.109,45.109,0,0,1,427.667,94.42ZM415.94,91.51V87.65h4.409v3.86Zm1.773,10.169a3.712,3.712,0,0,0,1.136,2.822,4.316,4.316,0,0,0,2.939,1.136h1.6V97.7a9.677,9.677,0,0,0-1.93-.216C418.967,97.486,417.713,98.887,417.713,101.679Zm4.35-10.169V87.65h4.409v3.86Z"
                transform="translate(-320.341 -85.847)" fill="#fff" />
        </g>
    </g>
</svg>
