<svg xmlns="http://www.w3.org/2000/svg" width="35" height="34" viewBox="0 0 35 34">
    <g id="Group_517" data-name="Group 517" transform="translate(-352 -528)">
        <rect id="Rectangle_103" data-name="Rectangle 103" width="35" height="34" rx="6"
            transform="translate(352 528)" fill="#fff" />
        <path id="user"
            d="M17.069,15.594c-2.858-1.042-3.772-1.92-3.772-3.8,0-1.129.937-1.861,1.256-2.829a22.985,22.985,0,0,0,.658-2.948,18.4,18.4,0,0,0,.3-2.044C15.61,2.862,14.868,0,10.9,0S6.189,2.862,6.293,3.971a18.542,18.542,0,0,0,.3,2.044,22.875,22.875,0,0,0,.655,2.948c.319.968,1.257,1.7,1.257,2.829,0,1.882-.914,2.761-3.772,3.8S0,17.667,0,18.394V21.8H21.8V18.394C21.8,17.668,19.937,16.639,17.069,15.594Z"
            transform="translate(358 534.38) rotate(-1)" fill="#004a86" />
    </g>
</svg>
