<svg xmlns="http://www.w3.org/2000/svg" width="17.21" height="19.5" viewBox="0 0 17.21 19.5">
    <g id="Huge-icon_device_outline_notification" data-name="Huge-icon/device/outline/notification"
        transform="translate(-3.221 -2.25)">
        <path id="Rectangle_136" data-name="Rectangle 136"
            d="M1.643,5.77A6.338,6.338,0,0,1,7.826,0a6.338,6.338,0,0,1,6.183,5.77L14.346,8.8a3.836,3.836,0,0,0,.86,2.033,1.884,1.884,0,0,1-1.345,3.107H1.79A1.884,1.884,0,0,1,.446,10.835,3.836,3.836,0,0,0,1.306,8.8Z"
            transform="translate(4 3)" fill="none" stroke="#bbb" stroke-linejoin="round"
            stroke-width="1.5" />
        <path id="Ellipse_219" data-name="Ellipse 219"
            d="M6.087,0A3.222,3.222,0,0,1,3.044,2.029,3.222,3.222,0,0,1,0,0"
            transform="translate(8.783 18.971)" fill="none" stroke="#bbb" stroke-linecap="round"
            stroke-width="1.5" />
    </g>
</svg>
