<svg xmlns="http://www.w3.org/2000/svg" width="1588" height="1123" stroke="none"
    stroke-linecap="round" stroke-linejoin="round" fill="#fff" fill-rule="evenodd">
    <path
        d="M1409.8356 990.9242l.1182 52.2619.9457 3.3398c2.9887 10.5625 9.3523 17.2777 19.0768 20.1214 2.3208.6792 6.4188.7421 55.7416.8511l53.2371.1176.277-25.1141-.0183-58.0432c-.2218 1.1457-.2964 1.15-7.2962.1305-13.2776-1.9289-25.7341-2.7783-31.423-2.1402-16.0954 1.8012-28.4647 9.2746-35.7479 21.6014-3.5786 6.0585-5.0057 11.463-4.9849 18.8953.0244 9.5068 2.5518 16.4171 8.0501 22.0238l2.192 2.2311-14.1719-.1279-14.1713-.1303-2.2502-1.2453c-2.3649-1.3104-3.6938-2.9405-4.9312-6.0571-.7007-1.7601-.7544-4.9618-.8623-51.4277l-.1162-49.5491h-11.8909-11.8914l.1172 52.261m-269.6473-31.8176v10.8522h12.309 12.3111v-10.8522-10.8483h-12.3111-12.309v10.8483m121.8406 0v10.8522h12.3084 12.3111v-10.8522-10.8483h-12.3111-12.3084v10.8483m212.3854 0v10.8522h12.3105 12.3094v-10.8522-10.8483h-12.3094-12.3105v10.8483m33.7989 0v10.8522h12.102 12.0984v-10.8522-10.8483h-12.0984-12.102v10.8483m-447.3046 5.0527c-9.6066 1.0891-17.3142 4.3766-22.5522 9.6151-3.0632 3.0637-6.7763 8.9312-8.2962 13.1167-2.6582 7.3204-2.6432 7.1287-2.8329 34.9121l-.1701 25.3486-16.9749-.0161c-19.0821-.0147-21.5898-.2614-26.5366-2.6117-3.6536-1.7353-6.6849-4.6389-8.3043-7.9541-2.213-4.5322-2.3743-6.6219-2.3743-30.5548V984.144H961.182 949.5v26.4187c0 25.5692.0297 26.5287.8872 29.9277 2.224 8.793 7.4159 16.4935 14.0613 20.8565 4.0416 2.652 8.2621 4.2793 13.9674 5.3823 4.3402.8346 5.7697.8668 38.493.8668h33.9844l.0164-31.6067c.0149-34.1188.1061-35.7328 2.2186-40.3569 1.3073-2.8529 4.7039-6.5082 7.5739-8.1491 2.9838-1.7097 8.1732-2.8269 14.7059-3.1687l5.5288-.2886.0036 26.6592c0 16.7984.1701 28.0491.4591 30.4152 1.4596 11.974 7.4142 20.6601 16.6863 24.3441 4.9767 1.9773 8.0491 2.2272 25.2035 2.0752l15.4394-.1386 3.336-1.1735c4.6384-1.635 6.9327-2.9666 10.6777-6.2039 2.8805-2.4893 3.2967-2.7229 3.79-2.1271 1.2068 1.4555 6.1509 4.8616 9.3147 6.4174 1.8378.9042 4.8527 2.021 6.7017 2.4817 3.2934.8219 4.4417.8379 59.6688.7215l56.3084-.1173 3.7553-1.1289c4.9953-1.4992 10.6348-4.376 14.0405-7.1638l2.7746-2.2731.9792 1.0505c3.3391 3.5695 10.3151 7.4432 16.0542 8.9111 3.0394.7764 4.7315.8203 31.3096.8203h28.0992v-41.7243-41.7277h-11.8914-11.8917v31.5056 31.5022h-16.2536c-17.4477 0-19.0222-.145-23.204-2.1148-3.8589-1.8193-4.0673-2.1657-3.0666-5.1953 2.4148-7.304 2.6788-18.822.6081-26.6486-2.4215-9.1675-7.0804-16.3112-14.1442-21.7035-5.3986-4.12-12.5325-7.0625-20.451-8.4427-5.3449-.9296-17.8798-.5877-24.1634.6599-11.8824 2.3606-23.6338 7.1517-35.7708 14.5844l-4.7994 2.9388-.1113-8.5412-.1126-8.5448h-12.0933-12.0919v31.5332 31.5327l-11.3707-.1593c-12.6746-.1748-13.8194-.3728-17.9085-3.0665-3.1363-2.0654-3.3747-2.5394-2.8611-5.7076.2522-1.5516.4231-13 .4245-28.3649l.0032-25.7676h-11.8698-11.8719l-.1392 24.5149c-.1388 24.4308-.1416 24.5216-1.1065 27.1335-1.9415 5.2631-6.0064 9.3643-10.6391 10.7426-2.8485.8447-13.1039.8447-15.9535 0-2.7631-.8202-5.2375-3.0106-6.4642-5.7279l-.9985-2.2101-.2069-37.3457-.2096-37.3447-20.4447-.0523c-11.2476-.027-21.8542.1108-23.5765.305m204.6664 39.1959c-5.9044.3974-11.048 1.3448-16.2715 2.9933-5.4262 1.7108-17.4123 7.7311-23.8889 12.0011l-5.1116 3.37v12.7151 12.7171h29.5688l31.8172-.4217c5.1613-.9615 10.2419-4.7822 12.4622-9.3711 3.138-6.4831 3.1976-15.6464.1414-21.9086-2.228-4.5587-7.5993-9.1122-12.7818-10.8281-2.1638-.7206-9.5142-1.8165-10.9262-1.6332-.2309.0303-2.485.1953-5.0096.3661m232.7581.2036c-7.0374 1.8962-10.9033 5.9432-12.9392 13.5515-1.1075 4.1396-.9927 12.7447.2173 16.0308 2.5135 6.8309 7.5785 11.3073 14.9174 13.1844 2.4531.6269 4.6157.8263 9.0035.8263h5.774v-21.648-21.6463l-3.1443-.4673c-4.2373-.6309-11.1775-.5447-13.8287.1686m-518.3741 89.4905v10.8608l12.2065-.1088 12.2042-.1099v-10.6421-10.6383l-12.2042-.1125-12.2065-.1097v10.8605m33.4798-.1043l.1094 10.7464 12.2069.1099 12.2036.1088v-10.8525-10.8563h-12.3167-12.317l.1138 10.7437m317.8568.1043v10.8488h12.3093 12.3081v-10.8488-10.848h-12.3081-12.3093v10.848m33.7973 0v10.8608l12.2055-.1088 12.2036-.1099v-10.6421-10.6383l-12.2036-.1125-12.2055-.1097v10.8605"
        fill="#044c84" />
    <g fill-rule="nonzero">
        <path
            d="M949.5671 51.5414A505.56 505.56 0 0 0 754.3932 8.9237c-45.8706-.77-84.1129 25.2323-87.1863 68.2607-5.5484 77.0676 12.868 149.8907 44.4308 219.6465 8.7312 19.3678 25.2829 24.2013 44.4262 19.5956 18.8684-4.5122 24.9214-19.0064 23.8837-36.9759-1.3081-22.374-3.972-44.6048-4.2893-66.863-.769-56.6156 37.1077-94.7654 93.773-94.4051 21.5329.1794 42.9783 3.2023 64.5179 4.5611 20.6322 1.2174 34.7167-8.5346 38.8252-28.533 4.0156-19.5963-4.1522-34.2206-23.2073-42.6642"
            fill="#00c5fb" />
        <g fill="#004a86">
            <path
                d="M871.641 194.2949c-20.4096 5.0088-27.5416 20.4102-25.7782 40.6327 1.8051 22.26 4.7408 44.5617 4.7408 66.8196a88.857 88.857 0 0 1-24.5014 63.4879 88.848 88.848 0 0 1-62.2296 27.529q-1.8936.0654-3.7948 0c-19.911.0435-39.9102-2.1813-59.8183-3.9729-24.5179-2.1811-40.723 6.232-46.3231 24.9222-6.0033 19.7753 3.2024 35.9837 26.7391 46.9301 56.7075 26.4119 117.0227 37.2922 206.2728 43.7485 41.3089 3.9729 72.1897-40.8138 72.5768-80.0494a470.802 470.802 0 0 0-44.6981-208.3122c-8.9815-18.9629-23.7042-26.5472-43.1598-21.7616M30.4628 885.4259v-51.3724c29.112 20.0342 63.8519 31.6155 88.893 31.6155 22.8469 0 38.812-8.1372 38.812-21.9076 0-20.3434-32.2395-23.1632-64.1654-32.8643-22.5368-6.5729-42.2626-12.522-54.7714-30.0451a48.845 48.845 0 0 1-9.7003-30.9843c-.3935-19.7629 9.4239-38.3331 25.9765-49.1389 17.2137-12.2059 39.7392-18.1543 66.9823-18.1543 25.2299-.5278 50.2255 4.9447 72.928 15.9659v48.1986c-23.5534-14.1641-50.4779-21.7345-77.9611-21.9203-23.4724 0-38.1876 7.5129-38.1876 20.3428 0 38.4789 128.3289 17.2145 128.3289 94.2094.4565 19.8721-9.2115 38.6149-25.6683 49.7639-17.212 12.5207-39.1076 18.7786-66.3535 18.7786-29.8352-.0324-59.1549-7.7791-85.1131-22.4875z" />
            <path
                d="M508.7644 685.6906h46.9755l-81.3731 222.2743h-15.6496l-69.2041-166.1972-68.856 166.1972h-15.6506l-81.6952-222.2743h46.9503l46.0082 127.7042 50.7033-127.7042h45.071l50.7042 127.7042zm206.5803 219.1378l-19.0952-48.5146h-102.027l-19.0997 48.5146h-46.0079l88.267-219.0937h55.7129l88.266 219.0937zm-105.4806-88.9399h70.736L645.245 726.069zm285.1425-130.1979c46.6336 0 75.4331 24.7284 75.4331 68.5481s-28.7995 68.858-75.4331 68.858h-61.6584v81.6876H789.526V685.6906zm-5.3243 97.6537c23.4733 0 35.0541-9.7021 35.0541-29.1118 0-19.0927-11.5808-28.796-35.0541-28.796h-56.3341v57.9078h56.3341z" />
        </g>
        <path
            d="M944.4563 901.436c-.34-5.1628 1.4975-10.2306 5.0644-13.9783a18.515 18.515 0 0 1 13.714-5.7408c8.0662-.3973 15.5641 4.1589 18.9276 11.5026s1.9159 15.9951-3.6539 21.8442-14.1412 7.7174-21.6403 4.7163-12.4149-10.2673-12.4118-18.344z"
            fill="#00c5fb" />
        <path
            d="M1325.3811 904.8373h-43.8198V737.9834l-81.6956 170.0021h-15.6496l-81.6877-170.0021v166.8009h-43.8222l.3159-219.0937h64.1654l68.8545 143.0407 68.8617-143.0407h64.1604zm216.2746-179.0837h-122.3735v42.2626h114.8667v39.4365h-114.8667v57.2747h122.3735v40.0661h-166.2018V685.6906h166.2018v40.063z"
            fill="#004a86" />
    </g>
</svg>